ffmpeg started on 2025-05-12 at 14:59:42
Report written to "D:\Convert\FFMetrics\reports\psnr_report-6.txt"
Log level: 32
Command line:
ffmpeg -hide_banner -nostdin -i "G:\\\xc0\xed\xe8\xec\xe5\\\xce\xed\xe3\xee\xe8\xed\xe3\xe8\\!_35_\xcb\xe5\xf2\xee_2024\\DreamCast\\\xc4\xe8\xf1\xea\xe2\xe0\xeb\xe8\xf4\xe8\xf6\xe8\xf0\xee\xe2\xe0\xed \xef\xee \xe6\xe8\xe7\xed\xe8\\[DC] Isekai Shikkaku - 12_Telegram_HEVC.mkv" -i "G:\\\xc0\xed\xe8\xec\xe5\\\xce\xed\xe3\xee\xe8\xed\xe3\xe8\\!_35_\xcb\xe5\xf2\xee_2024\\DreamCast\\\xc4\xe8\xf1\xea\xe2\xe0\xeb\xe8\xf4\xe8\xf6\xe8\xf0\xee\xe2\xe0\xed \xef\xee \xe6\xe8\xe7\xed\xe8\\[DC] Isekai Shikkaku - 12_Telegram.mp4" -lavfi "[0:v]settb=AVTB,setpts=PTS-STARTPTS,format=pix_fmts=yuv420p10,fps=24000/1001,scale=1920:1080:flags=bicubic[main];[1:v]settb=AVTB,setpts=PTS-STARTPTS,format=pix_fmts=yuv420p,fps=24000/1001,scale=1920:1080:flags=bicubic[ref];[main][ref]psnr=eof_action=endall:stats_file='D\\:/Convert/FFMetrics/logs/psnr_logfile-6.txt'" -f null -
Input #0, matroska,webm, from 'G:\Аниме\Онгоинги\!_35_Лето_2024\DreamCast\Дисквалифицирован по жизни\[DC] Isekai Shikkaku - 12_Telegram_HEVC.mkv':
  Metadata:
    COMPATIBLE_BRANDS: isomiso2avc1mp41
    MAJOR_BRAND     : isom
    MINOR_VERSION   : 512
    ENCODER         : Lavf61.7.100
  Duration: 00:23:46.60, start: -0.021000, bitrate: 989 kb/s
  Stream #0:0: Video: hevc (Main 10), yuv420p10le(tv, bt709, progressive), 1920x1080 [SAR 1:1 DAR 16:9], 23.98 fps, 23.98 tbr, 1k tbn (default)
      Metadata:
        HANDLER_NAME    : VideoHandler
        VENDOR_ID       : [0][0][0][0]
        ENCODER         : Lavc61.19.100 libx265
        BPS             : 791999
        DURATION        : 00:23:46.466708333
        NUMBER_OF_FRAMES: 34201
        NUMBER_OF_BYTES : 141219982
        _STATISTICS_WRITING_APP: mkvpropedit v66.0.0 ('Josie') 64-bit
        _STATISTICS_WRITING_DATE_UTC: 2025-05-07 12:10:05
        _STATISTICS_TAGS: BPS DURATION NUMBER_OF_FRAMES NUMBER_OF_BYTES
  Stream #0:1: Audio: aac (LC), 48000 Hz, stereo, fltp (default)
      Metadata:
        HANDLER_NAME    : SoundHandler
        VENDOR_ID       : [0][0][0][0]
        ENCODER         : Lavc61.19.100 aac
        BPS             : 193221
        DURATION        : 00:23:46.602000000
        NUMBER_OF_FRAMES: 66873
        NUMBER_OF_BYTES : 34456197
        _STATISTICS_WRITING_APP: mkvpropedit v66.0.0 ('Josie') 64-bit
        _STATISTICS_WRITING_DATE_UTC: 2025-05-07 12:10:05
        _STATISTICS_TAGS: BPS DURATION NUMBER_OF_FRAMES NUMBER_OF_BYTES
Input #1, mov,mp4,m4a,3gp,3g2,mj2, from 'G:\Аниме\Онгоинги\!_35_Лето_2024\DreamCast\Дисквалифицирован по жизни\[DC] Isekai Shikkaku - 12_Telegram.mp4':
  Metadata:
    major_brand     : isom
    minor_version   : 512
    compatible_brands: isomiso2avc1mp41
    encoder         : Lavf61.1.100
  Duration: 00:23:46.57, start: 0.000000, bitrate: 3775 kb/s
  Stream #1:0[0x1](und): Video: h264 (High) (avc1 / 0x31637661), yuv420p(tv, bt709, progressive), 1920x1080 [SAR 1:1 DAR 16:9], 3627 kb/s, 23.98 fps, 23.98 tbr, 24k tbn (default)
      Metadata:
        handler_name    : VideoHandler
        vendor_id       : [0][0][0][0]
        encoder         : Lavc61.3.100 h264_qsv
  Stream #1:1[0x2](und): Audio: aac (HE-AACv2) (mp4a / 0x6134706D), 48000 Hz, stereo, fltp, 144 kb/s (default)
      Metadata:
        handler_name    : SoundHandler
        vendor_id       : [0][0][0][0]
Stream mapping:
  Stream #0:0 (hevc) -> settb:default
  Stream #1:0 (h264) -> settb:default
  psnr:default -> Stream #0:0 (wrapped_avframe)
  Stream #0:1 -> #0:1 (aac (native) -> pcm_s16le (native))
Output #0, null, to 'pipe:':
  Metadata:
    COMPATIBLE_BRANDS: isomiso2avc1mp41
    MAJOR_BRAND     : isom
    MINOR_VERSION   : 512
    encoder         : Lavf61.7.100
  Stream #0:0: Video: wrapped_avframe, yuv420p10le(tv, bt709, progressive), 1920x1080 [SAR 1:1 DAR 16:9], q=2-31, 200 kb/s, 23.98 fps, 23.98 tbn
      Metadata:
        encoder         : Lavc61.19.100 wrapped_avframe
  Stream #0:1: Audio: pcm_s16le, 48000 Hz, stereo, s16, 1536 kb/s (default)
      Metadata:
        HANDLER_NAME    : SoundHandler
        VENDOR_ID       : [0][0][0][0]
        _STATISTICS_TAGS: BPS DURATION NUMBER_OF_FRAMES NUMBER_OF_BYTES
        BPS             : 193221
        DURATION        : 00:23:46.602000000
        NUMBER_OF_FRAMES: 66873
        NUMBER_OF_BYTES : 34456197
        _STATISTICS_WRITING_APP: mkvpropedit v66.0.0 ('Josie') 64-bit
        _STATISTICS_WRITING_DATE_UTC: 2025-05-07 12:10:05
        encoder         : Lavc61.19.100 pcm_s16le
frame=  170 fps=0.0 q=-0.0 size=N/A time=00:00:07.09 bitrate=N/A speed=13.4x    frame=  351 fps=338 q=-0.0 size=N/A time=00:00:14.63 bitrate=N/A speed=14.1x    frame=  603 fps=389 q=-0.0 size=N/A time=00:00:25.15 bitrate=N/A speed=16.2x    frame=  842 fps=406 q=-0.0 size=N/A time=00:00:35.11 bitrate=N/A speed=16.9x    frame= 1072 fps=414 q=-0.0 size=N/A time=00:00:44.71 bitrate=N/A speed=17.3x    frame= 1315 fps=424 q=-0.0 size=N/A time=00:00:54.84 bitrate=N/A speed=17.7x    frame= 1578 fps=436 q=-0.0 size=N/A time=00:01:05.81 bitrate=N/A speed=18.2x    frame= 1813 fps=439 q=-0.0 size=N/A time=00:01:15.61 bitrate=N/A speed=18.3x    frame= 2035 fps=437 q=-0.0 size=N/A time=00:01:24.87 bitrate=N/A speed=18.2x    frame= 2312 fps=448 q=-0.0 size=N/A time=00:01:36.42 bitrate=N/A speed=18.7x    frame= 2544 fps=448 q=-0.0 size=N/A time=00:01:46.10 bitrate=N/A speed=18.7x    frame= 2811 fps=454 q=-0.0 size=N/A time=00:01:57.24 bitrate=N/A speed=18.9x    frame= 3080 fps=459 q=-0.0 size=N/A time=00:02:08.46 bitrate=N/A speed=19.1x    frame= 3341 fps=462 q=-0.0 size=N/A time=00:02:19.34 bitrate=N/A speed=19.3x    frame= 3565 fps=460 q=-0.0 size=N/A time=00:02:28.69 bitrate=N/A speed=19.2x    frame= 3774 fps=456 q=-0.0 size=N/A time=00:02:37.40 bitrate=N/A speed=  19x    frame= 3957 fps=451 q=-0.0 size=N/A time=00:02:45.03 bitrate=N/A speed=18.8x    frame= 4186 fps=450 q=-0.0 size=N/A time=00:02:54.59 bitrate=N/A speed=18.8x    frame= 4381 fps=446 q=-0.0 size=N/A time=00:03:02.72 bitrate=N/A speed=18.6x    frame= 4587 fps=444 q=-0.0 size=N/A time=00:03:11.31 bitrate=N/A speed=18.5x    frame= 4789 fps=442 q=-0.0 size=N/A time=00:03:19.74 bitrate=N/A speed=18.4x    frame= 5028 fps=442 q=-0.0 size=N/A time=00:03:29.70 bitrate=N/A speed=18.4x    frame= 5243 fps=441 q=-0.0 size=N/A time=00:03:38.67 bitrate=N/A speed=18.4x    frame= 5496 fps=443 q=-0.0 size=N/A time=00:03:49.22 bitrate=N/A speed=18.5x    frame= 5751 fps=445 q=-0.0 size=N/A time=00:03:59.86 bitrate=N/A speed=18.6x    frame= 5999 fps=446 q=-0.0 size=N/A time=00:04:10.20 bitrate=N/A speed=18.6x    frame= 6246 fps=448 q=-0.0 size=N/A time=00:04:20.51 bitrate=N/A speed=18.7x    frame= 6451 fps=446 q=-0.0 size=N/A time=00:04:29.06 bitrate=N/A speed=18.6x    frame= 6664 fps=445 q=-0.0 size=N/A time=00:04:37.94 bitrate=N/A speed=18.6x    frame= 6941 fps=448 q=-0.0 size=N/A time=00:04:49.49 bitrate=N/A speed=18.7x    frame= 7207 fps=450 q=-0.0 size=N/A time=00:05:00.59 bitrate=N/A speed=18.8x    frame= 7473 fps=452 q=-0.0 size=N/A time=00:05:11.68 bitrate=N/A speed=18.9x    frame= 7717 fps=453 q=-0.0 size=N/A time=00:05:21.86 bitrate=N/A speed=18.9x    frame= 7988 fps=455 q=-0.0 size=N/A time=00:05:33.16 bitrate=N/A speed=  19x    frame= 8235 fps=456 q=-0.0 size=N/A time=00:05:43.46 bitrate=N/A speed=  19x    frame= 8512 fps=458 q=-0.0 size=N/A time=00:05:55.02 bitrate=N/A speed=19.1x    frame= 8770 fps=459 q=-0.0 size=N/A time=00:06:05.78 bitrate=N/A speed=19.2x    frame= 9019 fps=460 q=-0.0 size=N/A time=00:06:16.16 bitrate=N/A speed=19.2x    frame= 9258 fps=460 q=-0.0 size=N/A time=00:06:26.13 bitrate=N/A speed=19.2x    frame= 9516 fps=461 q=-0.0 size=N/A time=00:06:36.89 bitrate=N/A speed=19.2x    frame= 9780 fps=462 q=-0.0 size=N/A time=00:06:47.90 bitrate=N/A speed=19.3x    frame=10034 fps=463 q=-0.0 size=N/A time=00:06:58.50 bitrate=N/A speed=19.3x    frame=10315 fps=465 q=-0.0 size=N/A time=00:07:10.22 bitrate=N/A speed=19.4x    frame=10579 fps=466 q=-0.0 size=N/A time=00:07:21.23 bitrate=N/A speed=19.4x    frame=10829 fps=466 q=-0.0 size=N/A time=00:07:31.65 bitrate=N/A speed=19.4x    frame=11085 fps=467 q=-0.0 size=N/A time=00:07:42.33 bitrate=N/A speed=19.5x    frame=11354 fps=468 q=-0.0 size=N/A time=00:07:53.55 bitrate=N/A speed=19.5x    frame=11616 fps=469 q=-0.0 size=N/A time=00:08:04.48 bitrate=N/A speed=19.6x    frame=11883 fps=470 q=-0.0 size=N/A time=00:08:15.62 bitrate=N/A speed=19.6x    frame=12154 fps=471 q=-0.0 size=N/A time=00:08:26.92 bitrate=N/A speed=19.6x    frame=12432 fps=472 q=-0.0 size=N/A time=00:08:38.51 bitrate=N/A speed=19.7x    frame=12683 fps=473 q=-0.0 size=N/A time=00:08:48.98 bitrate=N/A speed=19.7x    frame=12937 fps=473 q=-0.0 size=N/A time=00:08:59.58 bitrate=N/A speed=19.7x    frame=13175 fps=473 q=-0.0 size=N/A time=00:09:09.50 bitrate=N/A speed=19.7x    frame=13433 fps=473 q=-0.0 size=N/A time=00:09:20.26 bitrate=N/A speed=19.7x    frame=13645 fps=472 q=-0.0 size=N/A time=00:09:29.11 bitrate=N/A speed=19.7x    frame=13854 fps=471 q=-0.0 size=N/A time=00:09:37.82 bitrate=N/A speed=19.6x    frame=14099 fps=471 q=-0.0 size=N/A time=00:09:48.04 bitrate=N/A speed=19.6x    frame=14334 fps=471 q=-0.0 size=N/A time=00:09:57.84 bitrate=N/A speed=19.6x    frame=14597 fps=471 q=-0.0 size=N/A time=00:10:08.81 bitrate=N/A speed=19.7x    frame=14853 fps=472 q=-0.0 size=N/A time=00:10:19.49 bitrate=N/A speed=19.7x    frame=15069 fps=471 q=-0.0 size=N/A time=00:10:28.50 bitrate=N/A speed=19.6x    frame=15260 fps=469 q=-0.0 size=N/A time=00:10:36.46 bitrate=N/A speed=19.6x    frame=15471 fps=468 q=-0.0 size=N/A time=00:10:45.26 bitrate=N/A speed=19.5x    frame=15676 fps=467 q=-0.0 size=N/A time=00:10:53.81 bitrate=N/A speed=19.5x    frame=15915 fps=467 q=-0.0 size=N/A time=00:11:03.78 bitrate=N/A speed=19.5x    frame=16047 fps=464 q=-0.0 size=N/A time=00:11:09.29 bitrate=N/A speed=19.4x    frame=16287 fps=464 q=-0.0 size=N/A time=00:11:19.30 bitrate=N/A speed=19.4x    frame=16536 fps=464 q=-0.0 size=N/A time=00:11:29.68 bitrate=N/A speed=19.4x    frame=16788 fps=465 q=-0.0 size=N/A time=00:11:40.19 bitrate=N/A speed=19.4x    frame=17059 fps=465 q=-0.0 size=N/A time=00:11:51.50 bitrate=N/A speed=19.4x    frame=17315 fps=466 q=-0.0 size=N/A time=00:12:02.17 bitrate=N/A speed=19.4x    frame=17601 fps=467 q=-0.0 size=N/A time=00:12:14.10 bitrate=N/A speed=19.5x    frame=17858 fps=468 q=-0.0 size=N/A time=00:12:24.82 bitrate=N/A speed=19.5x    frame=18118 fps=468 q=-0.0 size=N/A time=00:12:35.67 bitrate=N/A speed=19.5x    frame=18325 fps=467 q=-0.0 size=N/A time=00:12:44.30 bitrate=N/A speed=19.5x    frame=18584 fps=468 q=-0.0 size=N/A time=00:12:55.10 bitrate=N/A speed=19.5x    frame=18829 fps=468 q=-0.0 size=N/A time=00:13:05.32 bitrate=N/A speed=19.5x    frame=19067 fps=468 q=-0.0 size=N/A time=00:13:15.25 bitrate=N/A speed=19.5x    frame=19281 fps=467 q=-0.0 size=N/A time=00:13:24.17 bitrate=N/A speed=19.5x    frame=19507 fps=467 q=-0.0 size=N/A time=00:13:33.60 bitrate=N/A speed=19.5x    frame=19776 fps=467 q=-0.0 size=N/A time=00:13:44.82 bitrate=N/A speed=19.5x    frame=20041 fps=468 q=-0.0 size=N/A time=00:13:55.87 bitrate=N/A speed=19.5x    frame=20251 fps=467 q=-0.0 size=N/A time=00:14:04.63 bitrate=N/A speed=19.5x    frame=20473 fps=467 q=-0.0 size=N/A time=00:14:13.89 bitrate=N/A speed=19.5x    frame=20716 fps=467 q=-0.0 size=N/A time=00:14:24.02 bitrate=N/A speed=19.5x    frame=20935 fps=466 q=-0.0 size=N/A time=00:14:33.16 bitrate=N/A speed=19.4x    frame=21178 fps=466 q=-0.0 size=N/A time=00:14:43.29 bitrate=N/A speed=19.5x    frame=21422 fps=466 q=-0.0 size=N/A time=00:14:53.47 bitrate=N/A speed=19.5x    frame=21671 fps=467 q=-0.0 size=N/A time=00:15:03.86 bitrate=N/A speed=19.5x    frame=21917 fps=467 q=-0.0 size=N/A time=00:15:14.12 bitrate=N/A speed=19.5x    frame=22161 fps=467 q=-0.0 size=N/A time=00:15:24.29 bitrate=N/A speed=19.5x    frame=22365 fps=466 q=-0.0 size=N/A time=00:15:32.80 bitrate=N/A speed=19.4x    frame=22643 fps=467 q=-0.0 size=N/A time=00:15:44.40 bitrate=N/A speed=19.5x    frame=22889 fps=467 q=-0.0 size=N/A time=00:15:54.66 bitrate=N/A speed=19.5x    frame=23129 fps=467 q=-0.0 size=N/A time=00:16:04.67 bitrate=N/A speed=19.5x    frame=23367 fps=467 q=-0.0 size=N/A time=00:16:14.59 bitrate=N/A speed=19.5x    frame=23599 fps=467 q=-0.0 size=N/A time=00:16:24.27 bitrate=N/A speed=19.5x    frame=23842 fps=467 q=-0.0 size=N/A time=00:16:34.41 bitrate=N/A speed=19.5x    frame=24083 fps=467 q=-0.0 size=N/A time=00:16:44.46 bitrate=N/A speed=19.5x    frame=24363 fps=467 q=-0.0 size=N/A time=00:16:56.14 bitrate=N/A speed=19.5x    frame=24625 fps=468 q=-0.0 size=N/A time=00:17:07.06 bitrate=N/A speed=19.5x    frame=24896 fps=468 q=-0.0 size=N/A time=00:17:18.37 bitrate=N/A speed=19.5x    frame=25146 fps=469 q=-0.0 size=N/A time=00:17:28.79 bitrate=N/A speed=19.5x    frame=25403 fps=469 q=-0.0 size=N/A time=00:17:39.51 bitrate=N/A speed=19.6x    frame=25663 fps=469 q=-0.0 size=N/A time=00:17:50.36 bitrate=N/A speed=19.6x    frame=25925 fps=470 q=-0.0 size=N/A time=00:18:01.28 bitrate=N/A speed=19.6x    frame=26178 fps=470 q=-0.0 size=N/A time=00:18:11.84 bitrate=N/A speed=19.6x    frame=26426 fps=470 q=-0.0 size=N/A time=00:18:22.18 bitrate=N/A speed=19.6x    frame=26646 fps=469 q=-0.0 size=N/A time=00:18:31.36 bitrate=N/A speed=19.6x    frame=26868 fps=469 q=-0.0 size=N/A time=00:18:40.61 bitrate=N/A speed=19.6x    frame=27102 fps=469 q=-0.0 size=N/A time=00:18:50.37 bitrate=N/A speed=19.6x    frame=27347 fps=469 q=-0.0 size=N/A time=00:19:00.59 bitrate=N/A speed=19.6x    frame=27593 fps=469 q=-0.0 size=N/A time=00:19:10.85 bitrate=N/A speed=19.6x    frame=27847 fps=469 q=-0.0 size=N/A time=00:19:21.45 bitrate=N/A speed=19.6x    frame=28111 fps=469 q=-0.0 size=N/A time=00:19:32.46 bitrate=N/A speed=19.6x    frame=28356 fps=469 q=-0.0 size=N/A time=00:19:42.68 bitrate=N/A speed=19.6x    frame=28610 fps=470 q=-0.0 size=N/A time=00:19:53.27 bitrate=N/A speed=19.6x    frame=28875 fps=470 q=-0.0 size=N/A time=00:20:04.32 bitrate=N/A speed=19.6x    frame=29127 fps=470 q=-0.0 size=N/A time=00:20:14.83 bitrate=N/A speed=19.6x    frame=29380 fps=470 q=-0.0 size=N/A time=00:20:25.39 bitrate=N/A speed=19.6x    frame=29586 fps=470 q=-0.0 size=N/A time=00:20:33.98 bitrate=N/A speed=19.6x    frame=29832 fps=470 q=-0.0 size=N/A time=00:20:44.24 bitrate=N/A speed=19.6x    frame=30055 fps=470 q=-0.0 size=N/A time=00:20:53.54 bitrate=N/A speed=19.6x    frame=30276 fps=469 q=-0.0 size=N/A time=00:21:02.76 bitrate=N/A speed=19.6x    frame=30506 fps=469 q=-0.0 size=N/A time=00:21:12.35 bitrate=N/A speed=19.6x    frame=30742 fps=469 q=-0.0 size=N/A time=00:21:22.19 bitrate=N/A speed=19.6x    frame=30942 fps=468 q=-0.0 size=N/A time=00:21:30.53 bitrate=N/A speed=19.5x    frame=31181 fps=468 q=-0.0 size=N/A time=00:21:40.50 bitrate=N/A speed=19.5x    frame=31412 fps=468 q=-0.0 size=N/A time=00:21:50.14 bitrate=N/A speed=19.5x    frame=31650 fps=468 q=-0.0 size=N/A time=00:22:00.06 bitrate=N/A speed=19.5x    frame=31885 fps=468 q=-0.0 size=N/A time=00:22:09.87 bitrate=N/A speed=19.5x    frame=32089 fps=467 q=-0.0 size=N/A time=00:22:18.37 bitrate=N/A speed=19.5x    frame=32324 fps=467 q=-0.0 size=N/A time=00:22:28.18 bitrate=N/A speed=19.5x    frame=32562 fps=467 q=-0.0 size=N/A time=00:22:38.10 bitrate=N/A speed=19.5x    frame=32795 fps=467 q=-0.0 size=N/A time=00:22:47.82 bitrate=N/A speed=19.5x    frame=33013 fps=467 q=-0.0 size=N/A time=00:22:56.91 bitrate=N/A speed=19.5x    frame=33242 fps=466 q=-0.0 size=N/A time=00:23:06.46 bitrate=N/A speed=19.5x    frame=33465 fps=466 q=-0.0 size=N/A time=00:23:15.76 bitrate=N/A speed=19.4x    frame=33680 fps=466 q=-0.0 size=N/A time=00:23:24.73 bitrate=N/A speed=19.4x    frame=33918 fps=466 q=-0.0 size=N/A time=00:23:34.66 bitrate=N/A speed=19.4x    frame=34144 fps=466 q=-0.0 size=N/A time=00:23:44.08 bitrate=N/A speed=19.4x    [Parsed_psnr_10 @ 0000013e7153aa40] PSNR y:49.003565 u:49.474336 v:50.001011 average:49.232379 min:39.956878 max:inf
[out#0/null @ 0000013e717f1440] video:14696KiB audio:267492KiB subtitle:0KiB other streams:0KiB global headers:0KiB muxing overhead: unknown
frame=34201 fps=466 q=-0.0 Lsize=N/A time=00:23:46.46 bitrate=N/A speed=19.4x    
